<svg width="116" height="38" viewBox="0 0 116 38" fill="none" xmlns="http://www.w3.org/2000/svg">
<path d="M48.6882 17.4922H45.8885C45.8373 17.1299 45.7329 16.8082 45.5753 16.527C45.4176 16.2415 45.2152 15.9986 44.968 15.7983C44.7209 15.598 44.4354 15.4446 44.1115 15.338C43.7919 15.2315 43.4446 15.1782 43.0696 15.1782C42.392 15.1782 41.8018 15.3466 41.299 15.6832C40.7961 16.0156 40.4062 16.5014 40.1292 17.1406C39.8523 17.7755 39.7138 18.5468 39.7138 19.4545C39.7138 20.3878 39.8523 21.1718 40.1292 21.8068C40.4105 22.4417 40.8025 22.9211 41.3054 23.245C41.8082 23.5689 42.3899 23.7308 43.0504 23.7308C43.4211 23.7308 43.7642 23.6818 44.0795 23.5838C44.3991 23.4858 44.6825 23.343 44.9297 23.1555C45.1768 22.9638 45.3814 22.7315 45.5433 22.4588C45.7095 22.1861 45.8246 21.875 45.8885 21.5255L48.6882 21.5383C48.6158 22.1392 48.4346 22.7187 48.1449 23.277C47.8594 23.8309 47.4737 24.3274 46.9879 24.7663C46.5064 25.201 45.9311 25.5461 45.2621 25.8018C44.5973 26.0532 43.8452 26.179 43.0057 26.179C41.8381 26.179 40.794 25.9147 39.8736 25.3863C38.9574 24.8579 38.2329 24.093 37.7003 23.0916C37.1719 22.0902 36.9077 20.8778 36.9077 19.4545C36.9077 18.027 37.1761 16.8125 37.7131 15.8111C38.25 14.8096 38.9787 14.0468 39.8991 13.5227C40.8196 12.9943 41.8551 12.7301 43.0057 12.7301C43.7642 12.7301 44.4673 12.8366 45.115 13.0497C45.767 13.2628 46.3444 13.5738 46.8473 13.9829C47.3501 14.3878 47.7592 14.8842 48.0746 15.4723C48.3942 16.0603 48.5987 16.7336 48.6882 17.4922Z" fill="black"/>
<path d="M53.3448 12.9091V26H50.6218V12.9091H53.3448Z" fill="black"/>
<path d="M55.5261 26V16.1818H58.2491V26H55.5261ZM56.9004 14.9162C56.4955 14.9162 56.1482 14.7819 55.8585 14.5135C55.5687 14.2407 55.4238 13.9147 55.4238 13.5355C55.4238 13.1605 55.5687 12.8388 55.8585 12.5703C56.1482 12.2976 56.4934 12.1612 56.894 12.1612C57.3031 12.1612 57.6504 12.2976 57.9359 12.5703C58.2257 12.8388 58.3705 13.1605 58.3705 13.5355C58.3705 13.9147 58.2257 14.2407 57.9359 14.5135C57.6504 14.7819 57.3052 14.9162 56.9004 14.9162Z" fill="black"/>
<path d="M60.4304 29.6818V16.1818H63.115V17.8309H63.2365C63.3558 17.5667 63.5284 17.2983 63.7542 17.0255C63.9844 16.7486 64.2827 16.5184 64.6491 16.3352C65.0199 16.1477 65.4801 16.054 66.0298 16.054C66.7457 16.054 67.4062 16.2415 68.0113 16.6165C68.6165 16.9872 69.1001 17.5476 69.4623 18.2976C69.8246 19.0433 70.0057 19.9787 70.0057 21.1037C70.0057 22.1988 69.8288 23.1236 69.4751 23.8778C69.1257 24.6278 68.6484 25.1967 68.0433 25.5845C67.4425 25.968 66.7692 26.1598 66.0234 26.1598C65.495 26.1598 65.0454 26.0724 64.6747 25.8977C64.3082 25.723 64.0078 25.5035 63.7734 25.2393C63.539 24.9709 63.3601 24.7003 63.2365 24.4275H63.1534V29.6818H60.4304ZM63.0959 21.0909C63.0959 21.6747 63.1768 22.1839 63.3388 22.6186C63.5007 23.0532 63.7351 23.392 64.0419 23.6349C64.3487 23.8736 64.7216 23.9929 65.1605 23.9929C65.6037 23.9929 65.9787 23.8714 66.2855 23.6285C66.5923 23.3814 66.8246 23.0405 66.9822 22.6058C67.1442 22.1669 67.2251 21.6619 67.2251 21.0909C67.2251 20.5241 67.1463 20.0255 66.9886 19.5951C66.8309 19.1647 66.5987 18.8281 66.2919 18.5852C65.9851 18.3423 65.6079 18.2209 65.1605 18.2209C64.7173 18.2209 64.3423 18.338 64.0355 18.5724C63.7329 18.8068 63.5007 19.1392 63.3388 19.5696C63.1768 20 63.0959 20.5071 63.0959 21.0909Z" fill="black"/>
<path d="M76.5128 26H71.8721V12.9091H76.5511C77.8679 12.9091 79.0014 13.1711 79.9517 13.6953C80.902 14.2152 81.6328 14.963 82.1442 15.9389C82.6598 16.9147 82.9176 18.0824 82.9176 19.4417C82.9176 20.8054 82.6598 21.9772 82.1442 22.9574C81.6328 23.9375 80.8977 24.6896 79.9389 25.2138C78.9844 25.7379 77.8423 26 76.5128 26ZM74.6399 23.6285H76.3977C77.2159 23.6285 77.9041 23.4836 78.4623 23.1939C79.0248 22.8998 79.4467 22.446 79.728 21.8324C80.0135 21.2145 80.1562 20.4176 80.1562 19.4417C80.1562 18.4744 80.0135 17.6839 79.728 17.0703C79.4467 16.4566 79.027 16.0049 78.4687 15.7152C77.9105 15.4254 77.2223 15.2805 76.4041 15.2805H74.6399V23.6285Z" fill="black"/>
<path d="M84.9167 26V16.1818H87.5566V17.8949H87.6589C87.8379 17.2855 88.1383 16.8253 88.5602 16.5142C88.9821 16.1988 89.4678 16.0412 90.0176 16.0412C90.1539 16.0412 90.3009 16.0497 90.4586 16.0667C90.6163 16.0838 90.7548 16.1072 90.8741 16.137V18.5532C90.7463 18.5149 90.5694 18.4808 90.3436 18.451C90.1177 18.4211 89.911 18.4062 89.7235 18.4062C89.323 18.4062 88.965 18.4936 88.6497 18.6683C88.3386 18.8388 88.0914 19.0774 87.9082 19.3842C87.7292 19.691 87.6397 20.0447 87.6397 20.4453V26H84.9167Z" fill="black"/>
<path d="M96.261 26.1917C95.2681 26.1917 94.4094 25.9808 93.685 25.5589C92.9648 25.1328 92.4087 24.5405 92.0167 23.7819C91.6246 23.0191 91.4286 22.1349 91.4286 21.1292C91.4286 20.115 91.6246 19.2287 92.0167 18.4701C92.4087 17.7074 92.9648 17.115 93.685 16.6932C94.4094 16.267 95.2681 16.054 96.261 16.054C97.2539 16.054 98.1104 16.267 98.8306 16.6932C99.555 17.115 100.113 17.7074 100.505 18.4701C100.897 19.2287 101.093 20.115 101.093 21.1292C101.093 22.1349 100.897 23.0191 100.505 23.7819C100.113 24.5405 99.555 25.1328 98.8306 25.5589C98.1104 25.9808 97.2539 26.1917 96.261 26.1917ZM96.2738 24.0824C96.7255 24.0824 97.1026 23.9545 97.4052 23.6988C97.7077 23.4389 97.9357 23.0852 98.0891 22.6378C98.2468 22.1903 98.3256 21.6811 98.3256 21.1101C98.3256 20.539 98.2468 20.0298 98.0891 19.5824C97.9357 19.1349 97.7077 18.7812 97.4052 18.5213C97.1026 18.2613 96.7255 18.1314 96.2738 18.1314C95.8178 18.1314 95.4343 18.2613 95.1232 18.5213C94.8164 18.7812 94.5841 19.1349 94.4265 19.5824C94.2731 20.0298 94.1964 20.539 94.1964 21.1101C94.1964 21.6811 94.2731 22.1903 94.4265 22.6378C94.5841 23.0852 94.8164 23.4389 95.1232 23.6988C95.4343 23.9545 95.8178 24.0824 96.2738 24.0824Z" fill="black"/>
<path d="M102.864 29.6818V16.1818H105.549V17.8309H105.67C105.789 17.5667 105.962 17.2983 106.188 17.0255C106.418 16.7486 106.716 16.5184 107.083 16.3352C107.453 16.1477 107.914 16.054 108.463 16.054C109.179 16.054 109.84 16.2415 110.445 16.6165C111.05 16.9872 111.534 17.5476 111.896 18.2976C112.258 19.0433 112.439 19.9787 112.439 21.1037C112.439 22.1988 112.262 23.1236 111.909 23.8778C111.559 24.6278 111.082 25.1967 110.477 25.5845C109.876 25.968 109.203 26.1598 108.457 26.1598C107.929 26.1598 107.479 26.0724 107.108 25.8977C106.742 25.723 106.441 25.5035 106.207 25.2393C105.973 24.9709 105.794 24.7003 105.67 24.4275H105.587V29.6818H102.864ZM105.529 21.0909C105.529 21.6747 105.61 22.1839 105.772 22.6186C105.934 23.0532 106.169 23.392 106.475 23.6349C106.782 23.8736 107.155 23.9929 107.594 23.9929C108.037 23.9929 108.412 23.8714 108.719 23.6285C109.026 23.3814 109.258 23.0405 109.416 22.6058C109.578 22.1669 109.659 21.6619 109.659 21.0909C109.659 20.5241 109.58 20.0255 109.422 19.5951C109.265 19.1647 109.032 18.8281 108.725 18.5852C108.419 18.3423 108.042 18.2209 107.594 18.2209C107.151 18.2209 106.776 18.338 106.469 18.5724C106.167 18.8068 105.934 19.1392 105.772 19.5696C105.61 20 105.529 20.5071 105.529 21.0909Z" fill="black"/>
<path fill-rule="evenodd" clip-rule="evenodd" d="M24 24.5714C24 28.1218 21.1218 31 17.5714 31L15.8571 31C15.1471 31 14.5714 30.4244 14.5714 29.7143C14.5714 29.0042 15.1471 28.4286 15.8571 28.4286L17.5714 28.4286C19.7017 28.4286 21.4286 26.7017 21.4286 24.5714L21.4286 22.8571C21.4286 22.1471 22.0042 21.5714 22.7143 21.5714C23.4244 21.5714 24 22.1471 24 22.8571L24 24.5714Z" fill="black"/>
<path fill-rule="evenodd" clip-rule="evenodd" d="M5.62004e-07 24.5714C2.51618e-07 28.1218 2.87817 31 6.42857 31L8.14286 31C8.85294 31 9.42857 30.4244 9.42857 29.7143C9.42857 29.0042 8.85294 28.4286 8.14286 28.4286L6.42857 28.4286C4.29833 28.4286 2.57143 26.7017 2.57143 24.5714L2.57143 22.8571C2.57143 22.1471 1.9958 21.5714 1.28572 21.5714C0.575635 21.5714 7.73948e-07 22.1471 7.11871e-07 22.8571L5.62004e-07 24.5714Z" fill="black"/>
<path fill-rule="evenodd" clip-rule="evenodd" d="M0 13.4286C0 9.87817 2.87817 7 6.42857 7H8.14286C8.85294 7 9.42857 7.57563 9.42857 8.28571C9.42857 8.99579 8.85294 9.57143 8.14286 9.57143H6.42857C4.29833 9.57143 2.57143 11.2983 2.57143 13.4286V15.1429C2.57143 15.8529 1.99579 16.4286 1.28571 16.4286C0.575634 16.4286 0 15.8529 0 15.1429V13.4286Z" fill="black"/>
<path fill-rule="evenodd" clip-rule="evenodd" d="M24 13.4286C24 9.87817 21.1218 7 17.5714 7H15.8571C15.1471 7 14.5714 7.57563 14.5714 8.28571C14.5714 8.99579 15.1471 9.57143 15.8571 9.57143H17.5714C19.7017 9.57143 21.4286 11.2983 21.4286 13.4286V15.1429C21.4286 15.8529 22.0042 16.4286 22.7143 16.4286C23.4244 16.4286 24 15.8529 24 15.1429V13.4286Z" fill="black"/>
<path d="M11.1429 19C11.1429 19.4734 11.5266 19.8572 12 19.8572C12.4734 19.8572 12.8571 19.4734 12.8571 19C12.8571 18.5266 12.4734 18.1429 12 18.1429C11.5266 18.1429 11.1429 18.5266 11.1429 19Z" fill="black"/>
<path d="M15 19C15 19.9468 15.7675 20.7143 16.7143 20.7143C17.661 20.7143 18.4286 19.9468 18.4286 19C18.4286 18.0532 17.661 17.2857 16.7143 17.2857C15.7675 17.2857 15 18.0532 15 19Z" fill="black"/>
<path d="M5.14287 19C5.14287 19.9468 5.91038 20.7143 6.85716 20.7143C7.80393 20.7143 8.57144 19.9468 8.57144 19C8.57144 18.0532 7.80393 17.2857 6.85716 17.2857C5.91038 17.2857 5.14287 18.0532 5.14287 19Z" fill="black"/>
<path d="M10.2857 13.8572C10.2857 14.8039 11.0532 15.5715 12 15.5715C12.9468 15.5715 13.7143 14.8039 13.7143 13.8572C13.7143 12.9104 12.9468 12.1429 12 12.1429C11.0532 12.1429 10.2857 12.9104 10.2857 13.8572Z" fill="black"/>
<path d="M10.2857 24.1429C10.2857 25.0896 11.0532 25.8572 12 25.8572C12.9468 25.8572 13.7143 25.0896 13.7143 24.1429C13.7143 23.1961 12.9468 22.4286 12 22.4286C11.0532 22.4286 10.2857 23.1961 10.2857 24.1429Z" fill="black"/>
</svg>
